<svg xmlns="http://www.w3.org/2000/svg" width="533.461" height="196.592" viewBox="0 0 533.461 196.592"><g transform="translate(2037.344 436.86)"><path d="M-1023.293-213.132c.949,2.2,1.856,4.188,2.665,6.214a42.089,42.089,0,0,0,3.289,5.95,1.726,1.726,0,0,1-.34,2.447c-5.774,6.4-13.166,9.414-21.516,10.646-19.151,2.826-38.375-10.761-42.119-31.644-3.739-20.857,11.285-40.771,32.416-43.356,23.254-2.845,38.923,14.725,42.154,29.215a34.326,34.326,0,0,1,.923,9.088c-.506,10.567,7.764,18.976,16.193,21.685,19.23,6.182,32.017-10.474,31.076-23.527-.726-10.074-7.839-19.315-16.962-21.879a24.719,24.719,0,0,0-26.57,9.411c-.26.361-.507.732-.937,1.355-1.747-3.38-3.4-6.569-5.045-9.761-2.183-4.236-2.229-4.3,1.523-7.31,19.8-15.9,54.041-10.661,61.16,22.089,5.447,25.061-16.072,47.69-41.6,44.713-9.363-1.092-16.906-5.463-23.211-12.28-7.119-7.7-10.867-16.657-10.365-27.243a16.305,16.305,0,0,0-1.882-8.251c-4.26-8.421-14.269-14.285-23.08-13.507a24.175,24.175,0,0,0-21.158,16.454,23.588,23.588,0,0,0,9.258,26.924c9.527,6.194,20.811,5.413,29.177-2.011A41.07,41.07,0,0,0-1023.293-213.132Z" transform="translate(-582.47 -105.833)" fill="#f5f5f5"/><path d="M-1294.615-202.065q0-29.433-.034-58.867c0-1.484.323-1.95,1.871-1.938,3.507.027,7.016-.151,10.522-.314,1.01-.047,1.341.206,1.288,1.268-.1,2.008-.066,4.024-.022,6.036.025,1.16.568,1.391,1.451.6,19.548-17.5,55.017-4.934,59.682,24.067,3.945,24.516-13.353,40.816-32.759,43.293-9.6,1.225-18.778-.137-26.988-5.753-.391-.267-.825-.771-1.382-.343a1.023,1.023,0,0,0-.216,1.4,4.01,4.01,0,0,1,.237,2.1c.009,15.854-.019,31.708.048,47.562.007,1.578-.455,1.909-1.924,1.862q-5.065-.161-10.138,0c-1.412.048-1.671-.4-1.668-1.722Q-1294.578-172.436-1294.615-202.065Zm61.643-23.393a24.019,24.019,0,0,0-23.95-24.076,24.018,24.018,0,0,0-24.033,23.8,24,24,0,0,0,23.852,24.162A24,24,0,0,0-1232.972-225.459Z" transform="translate(-452.764 -105.809)" fill="#f5f5f5"/><path d="M-1566.355-187.126c-20.912-.038-37.081-13.1-40.621-30.974-4.185-21.121,11.608-42.915,32.988-45.5,14.962-1.808,26.49,4.328,35.842,15.51.75.9.562,1.341-.32,1.944q-4.744,3.242-9.407,6.6c-.791.568-1.177.57-1.812-.312-5.648-7.829-15.944-11.1-26.311-8.431-9.07,2.331-15.1,9.462-16.415,19.379-.821,6.186-.157,12.1,3.556,17.3,4.409,6.18,10.833,8.656,18.124,9.207a26.726,26.726,0,0,0,13.3-2.291,14.438,14.438,0,0,0,7.091-6.137c.509-.941.883-.84,1.584-.293,3.176,2.476,6.354,4.95,9.585,7.355.91.677.907,1.158.223,1.994C-1546.637-192.387-1556.426-187.3-1566.355-187.126Z" transform="translate(-261.951 -105.432)" fill="#f5f5f5"/><path d="M-2018.191-214.206q27.466-24.451,54.7-48.693c2.676-2.382,2.632-3.59-.382-5.707-8.34-5.86-16.705-11.686-24.846-17.823a70.781,70.781,0,0,1-6.775-5.859c-3.572-3.481-3.609-7.446-2.1-11.826a10.658,10.658,0,0,1,8.658-7.48,17.8,17.8,0,0,1,16.614,5.013c9.154,8.963,17.743,18.462,26.445,27.854,1.811,1.955,3.6,3.927,5.4,5.895,4.445,4.865,3.535,11.9-2.124,15.291-24.42,14.631-49.161,28.714-73.772,43.02A1.886,1.886,0,0,1-2018.191-214.206Z" transform="translate(-11.676 -76.133)" fill="#f5f5f5"/><path d="M-1408.558-305.689c0-18.458.024-36.916-.041-55.373-.006-1.664.457-2.05,2.048-1.992,3.441.127,6.895.136,10.335,0,1.686-.068,2.145.345,2.141,2.1q-.1,42.407-.046,84.815c0,8.774-.044,17.548.041,26.322.016,1.586-.468,1.933-1.95,1.889-3.508-.1-7.024-.123-10.53.006-1.6.059-2.044-.351-2.039-2C-1408.534-268.514-1408.558-287.1-1408.558-305.689Z" transform="translate(-383.297 -44.988)" fill="#f5f5f5"/><path d="M-1337.166-305.3c0,18.458-.025,36.916.041,55.373.006,1.663-.454,2.047-2.047,1.993-3.7-.124-7.411-.07-11.116-.019-1,.014-1.472-.246-1.322-1.3a6.892,6.892,0,0,0,.007-.974q0-55.276-.049-110.552c0-1.925.5-2.38,2.348-2.292,3.373.161,6.763.137,10.139.006,1.6-.062,2.046.348,2.04,2C-1337.19-342.479-1337.166-323.891-1337.166-305.3Z" transform="translate(-418.013 -44.976)" fill="#f5f5f5"/><path d="M-693.538-305.313c0,18.459-.022,36.918.039,55.376.005,1.581-.3,2.091-1.972,2.02-3.5-.149-7.024-.137-10.53,0-1.594.06-2.023-.318-2.017-1.974.066-20.733.043-41.467.043-62.2,0-16.379.019-32.758-.034-49.137,0-1.411.262-1.877,1.772-1.822,3.571.13,7.154.132,10.725,0,1.594-.058,2.024.318,2.018,1.974C-693.564-342.491-693.538-323.9-693.538-305.313Z" transform="translate(-810.387 -44.99)" fill="#f5f5f5"/><path d="M-1693.77-324.972a18.541,18.541,0,0,1,18.524,18.63,18.548,18.548,0,0,1-18.54,18.419,18.541,18.541,0,0,1-18.524-18.63A18.548,18.548,0,0,1-1693.77-324.972Z" transform="translate(-198.148 -68.209)" fill="#f5f5f5"/><path d="M-1915.566-435.992c6.126,5.112,12.287,10.181,18.368,15.345,13.316,11.306,26.658,22.583,39.65,34.264,1.884,1.693,3.668,3.5,5.561,5.178,2.444,2.17,2.914,5,2.6,7.984a5.519,5.519,0,0,1-4.115,4.891,15.448,15.448,0,0,1-16.277-3.3,33.031,33.031,0,0,1-4.484-4.862c-14.473-19.316-28.006-39.294-41.621-59.214Z" transform="translate(-74.047 -0.529)" fill="#f5f5f5"/><path d="M-1773.369-28.651c6.628,8.091,15.1,10.8,24.991,9.545,6.5-.827,11.182-4.225,13.731-10.851,2.983,5.275,6.527,9.441,13.125,9.315l-.128.573c-1.575.739-3.157,1.465-4.722,2.224-.781.378-1.046-.288-1.415-.67-1.582-1.635-3.185-3.254-4.681-4.966-.824-.943-1.251-.892-2.047.085-3.679,4.521-8.224,7.729-14.1,8.68-5.211.843-10.051-.53-14.717-2.7a35.215,35.215,0,0,1-7.9-4.961c-1.038-.874-1.585-.756-2.525.145-5.136,4.929-11.152,7.894-18.435,7.279-6.646-.562-12.23-3.743-17.3-7.859-1.25-1.016-1.775-1.266-2.87.294-4.964,7.068-13.344,9.649-22.374,7.078a35.753,35.753,0,0,1-13.411-7.3c-.888-.754-1.375-.933-2.323.066-8.61,9.066-19.586,10.683-30.668,4.6a27.158,27.158,0,0,1-6.179-4.391c-1.12-1.112-1.744-1.093-2.919.021-5.328,5.053-11.573,8.122-19.084,7.946a18.792,18.792,0,0,1-15.295-7.641c-.8-1.057-1.192-1.119-1.9-.038-2.138,3.243-5.55,4.8-8.811,6.544a1,1,0,0,1-1.24-.006c-1.262-.98-2.548-1.929-3.867-2.923.246-.225.328-.366.435-.388a20.1,20.1,0,0,0,12.66-8.724c.764-1.091,1.235-1,2.155-.057,4.566,4.7,9.82,8.143,16.668,8.156,3.928.007,7.492-1.433,10.9-3.261a43.47,43.47,0,0,0,8.448-5.9c.8-.718,1.16-.8,1.882.178,7.068,9.535,21.019,12.336,31.294,6.351a15.536,15.536,0,0,0,5.548-5.094c.794-1.272,1.149-1.346,2.309-.244,7.675,7.294,16.695,9.7,26.944,6.818A15.791,15.791,0,0,0-1812-27.551c.592-.921.846-1.143,1.746-.2,7.893,8.242,17.54,9.779,28.122,6.891A13.158,13.158,0,0,0-1773.369-28.651Z" transform="translate(-59.078 -248.057)" fill="#f5f5f5"/><path d="M-1940.487,9.141c1.248-.264,2.18-.448,3.107-.658,4.606-1.046,7.805-3.955,10.237-7.826.577-.919.823-1.222,1.676-.145,9.313,11.766,27.9,11.406,36.8-.664.145-.2.312-.376.591-.712,4.466,7.219,11.191,10.128,19.253,10.247,7.915.116,14.953-1.848,19.4-9.455A21.609,21.609,0,0,0-1836.491,8.4a33.233,33.233,0,0,0,15.447.264c4.79-1.089,8.534-3.446,9.866-8.585.813.118,1.17.788,1.681,1.217,5.638,4.741,11.948,7.846,19.481,7.7a20.119,20.119,0,0,0,15.878-7.834c.911-1.13,1.227-1.311,2.322-.106,6.71,7.385,15.006,10.236,24.805,7.975C-1741.564,7.775-1737.8,4.227-1735.1-1c2.434,4.885,6.367,6.743,11.46,6.8-1.873.642-3.716,1.4-5.63,1.881-1.136.283-2.039-.716-2.907-1.322-1.465-1.022-2.473-1.016-3.983.247-4.831,4.038-10.271,6.858-16.809,6.686-4.188-.11-7.979-1.649-11.636-3.541a34.424,34.424,0,0,1-6.227-3.983c-1.054-.875-1.6-.707-2.511.2a23.669,23.669,0,0,1-21.333,7,32.87,32.87,0,0,1-15.141-6.718c-.98-.754-1.493-.975-2.5.063-8.5,8.762-18.809,10.131-29.382,4.006a31.138,31.138,0,0,1-6.413-4.734c-1.034-1.026-1.571-.956-2.6.074-5.372,5.378-11.7,8.681-19.528,7.939-6.366-.6-11.764-3.58-16.484-7.735-1.42-1.25-2.032-1.15-3.28.22a22.607,22.607,0,0,1-33.553.381c-1.063-1.107-1.562-1.045-2.523,0-2.357,2.57-5.669,3.578-8.686,5.064a1.286,1.286,0,0,1-1.275-.153Z" transform="translate(-59.046 -265.711)" fill="#f5f5f5"/><path d="M-1832.332,38.5c5.17-1.964,8.795-5.2,12.073-8.844.962-1.071,1.385-.961,2.252.137,8.181,10.368,25.2,11.849,35.12,3.114.244-.214.463-.459.719-.657.862-.671,1.243-2.251,2.247-2.193.769.045,1.444,1.35,2.2,2.057,8.26,7.75,22.338,8.663,30.7,2.006a14.115,14.115,0,0,0,3.546-3.854c.752-1.3,1.245-1.13,2.272-.252,6.264,5.356,13.361,8.767,21.792,8.514,6.219-.186,11.382-2.525,14.544-8.2.57-1.025.9-.769,1.505-.121,1.816,1.95,3.679,3.856,5.5,5.807.3.318,1.037.65.393,1.229-.42.378-.986.692-1.542.112a1.082,1.082,0,0,0-.148-.126c-1.354-.974-2.489-3.016-3.944-2.839-1.269.155-2.252,2.147-3.484,3.182-7.271,6.109-15.409,6.476-24.008,3.483a38.76,38.76,0,0,1-10.452-5.551c-.74-.552-1.2-.693-1.913.1-8.532,9.44-22.378,10.359-33.813,1.6-1.121-.859-2.05-2.558-3.311-2.455-1.105.089-2.076,1.607-3.141,2.448-9.487,7.493-19.469,8.01-29.8,1.558a34.541,34.541,0,0,1-5.752-4.33c-.8-.772-1.327-.7-2.078.059-1.741,1.751-3.645,3.345-5.325,5.149-1.026,1.1-1.9,1.3-3.136.461C-1830.113,39.557-1831.009,39.188-1832.332,38.5Z" transform="translate(-124.979 -283.941)" fill="#f5f5f5"/><path d="M-1995.038-53.566c13.394,0,26.788.024,40.182-.035,1.483-.006,2.081.3,1.9,1.875-.175,1.529.453,3.575-.33,4.491-.825.966-2.925.287-4.465.288q-38.719.026-77.438.053c-1.666,0-2.335-.312-2.1-2.077.2-1.458-.425-3.421.325-4.3.791-.929,2.8-.28,4.276-.282Q-2013.861-53.585-1995.038-53.566Z" transform="translate(0 -233.539)" fill="#f5f5f5"/><path d="M-1075.265,39.386c1.546.957,2.868,1.971,4.322-.2.093,1.615-.6,2.037-1.7,2.065a3.936,3.936,0,0,1-2.026-.6c-1.47-.827-2.806-1.085-3.87,1.029,1.054-2.561-1.018-2.4-2.147-3.044a6.936,6.936,0,0,1-3.364-7.8,6.94,6.94,0,0,1,6.5-5.2,6.938,6.938,0,0,1,6.883,4.953,6.912,6.912,0,0,1-3.071,7.9C-1074.164,38.762-1074.607,39-1075.265,39.386Zm-1.967-12.932a6.033,6.033,0,0,0-6.172,6.124,6.015,6.015,0,0,0,6,6.085,6.127,6.127,0,0,0,6.217-6.118A6.146,6.146,0,0,0-1077.232,26.454Z" transform="translate(-581.016 -281.952)" fill="#f5f5f5"/><path d="M-780.623-31.866v11.624c-.972-.561-.658-1.213-.663-1.727q-.049-5.063,0-10.127c.006-.581-.388-1.463.477-1.674.766-.187,1.018.685,1.374,1.18,2.537,3.522,5.043,7.065,8.007,10.548V-33.85c1.007.258.791.8.793,1.193.018,3.635.024,7.271,0,10.906,0,.456.317,1.1-.375,1.345s-1.04-.291-1.388-.78q-3.331-4.676-6.679-9.34c-.337-.47-.689-.93-1.035-1.395Z" transform="translate(-765.671 -245.684)" fill="#f5f5f5"/><path d="M-916.479,26.233v5.329c0,2.142.036,4.286-.024,6.427-.016.548.478,1.392-.5,1.621-.83.2-1.085-.577-1.445-1.076-2.164-3-4.306-6.014-6.459-9.022a3.955,3.955,0,0,0-1.521-1.4V39.567c-.909-.085-.717-.583-.719-.907q-.026-5.551,0-11.1c0-.48-.232-1.143.431-1.347.632-.194.887.427,1.175.83,2.382,3.322,4.743,6.658,7.126,9.978.243.339.371.839,1.171.915v-11.7Z" transform="translate(-676.777 -282.277)" fill="#f5f5f5"/><path d="M-914.331-20.412V-32.245l-.465-.173-4.87,6.221-4.653-5.989-.553.17v11.594c-.966.008-.82-.493-.821-.832q-.022-5.647,0-11.295c0-.465-.25-1.114.524-1.263.625-.121.929.356,1.245.766,1.384,1.795,2.763,3.594,4.267,5.552,1.422-1.854,2.751-3.6,4.1-5.334.385-.495.728-1.233,1.517-.942.729.269.382,1.017.386,1.541.03,3.935.016,7.871.016,11.807Z" transform="translate(-677.665 -245.693)" fill="#f5f5f5"/><path d="M-974.347,39.7V27.723l-.42-.219-4.853,6.243-4.664-5.97-.506.135V39.5c-1.1.02-.87-.581-.873-.954q-.029-5.55,0-11.1c0-.47-.253-1.118.47-1.311.606-.162.943.291,1.265.713,1.18,1.548,2.4,3.065,3.525,4.654.6.854.991.759,1.551,0,1.15-1.57,2.35-3.1,3.528-4.652.321-.422.665-.876,1.266-.707.722.2.434.858.437,1.32q.034,5.452,0,10.905C-973.624,38.765-973.425,39.278-974.347,39.7Z" transform="translate(-641.102 -282.233)" fill="#f5f5f5"/><path d="M-1201.317,32.573a7.049,7.049,0,0,1-6.951,6.971,7.1,7.1,0,0,1-6.958-6.982,6.988,6.988,0,0,1,6.967-6.915A6.937,6.937,0,0,1-1201.317,32.573Zm-13.03.071a6.016,6.016,0,0,0,6.068,6.022,6.133,6.133,0,0,0,6.154-6.182,6.144,6.144,0,0,0-6.113-6.028A6.036,6.036,0,0,0-1214.348,32.645Z" transform="translate(-501.182 -281.955)" fill="#f5f5f5"/><path d="M-1163.338,32.526a7.053,7.053,0,0,1-6.9,7.019,7.1,7.1,0,0,1-7-6.936,6.98,6.98,0,0,1,6.919-6.962A6.941,6.941,0,0,1-1163.338,32.526Zm-13.031.036a6.016,6.016,0,0,0,5.985,6.1,6.129,6.129,0,0,0,6.236-6.1,6.145,6.145,0,0,0-6.029-6.111A6.035,6.035,0,0,0-1176.369,32.562Z" transform="translate(-524.334 -281.955)" fill="#f5f5f5"/><path d="M-1208.208-34.294a6.937,6.937,0,0,1,6.889,6.979,7.047,7.047,0,0,1-7,6.917,7.094,7.094,0,0,1-6.906-7.033A6.988,6.988,0,0,1-1208.208-34.294Zm-6.14,7.007a6.016,6.016,0,0,0,6.077,6.013,6.134,6.134,0,0,0,6.144-6.191,6.145,6.145,0,0,0-6.122-6.019A6.036,6.036,0,0,0-1214.348-27.287Z" transform="translate(-501.181 -245.413)" fill="#f5f5f5"/><path d="M-1170.274-34.294a6.937,6.937,0,0,1,6.934,6.934A7.049,7.049,0,0,1-1170.3-20.4a7.1,7.1,0,0,1-6.95-6.99A6.987,6.987,0,0,1-1170.274-34.294Zm-6.1,7.021a6.018,6.018,0,0,0,6.09,6,6.137,6.137,0,0,0,6.131-6.205,6.146,6.146,0,0,0-6.135-6.005A6.034,6.034,0,0,0-1176.369-27.274Z" transform="translate(-524.334 -245.413)" fill="#f5f5f5"/><path d="M-958.431-34.294a6.938,6.938,0,0,1,6.966,6.9,7.051,7.051,0,0,1-6.928,7,7.1,7.1,0,0,1-6.981-6.959A6.985,6.985,0,0,1-958.431-34.294Zm-6.064,6.931a6.015,6.015,0,0,0,6,6.088,6.127,6.127,0,0,0,6.219-6.115,6.145,6.145,0,0,0-6.046-6.095A6.033,6.033,0,0,0-964.5-27.363Z" transform="translate(-653.498 -245.413)" fill="#f5f5f5"/><path d="M-979.785-20.288c-1.752-.422-1.867-1.716-2.541-2.5a9.093,9.093,0,0,1-1.062-1.624c-.54-1-1.467-.719-2.248-.64-1.018.1-.547,1-.589,1.556-.074.992-.021,1.993-.021,2.988-1.046.011-.854-.573-.856-.956-.017-3.695.027-7.391-.034-11.084-.019-1.15.425-1.5,1.485-1.393.513.053,1.037-.009,1.555.013a4.588,4.588,0,0,1,4.333,3.285,4.19,4.19,0,0,1-1.972,4.852c-1.005.639-1,1.071-.38,1.918C-981.358-22.839-980.712-21.728-979.785-20.288Zm-6.461-9.252a12.7,12.7,0,0,0,.017,1.743c.089.633-.417,1.472.493,1.857a4.294,4.294,0,0,0,4.788-1.711,3.6,3.6,0,0,0-.351-4.174,3.829,3.829,0,0,0-4.261-1.122c-1.424.423-.394,2-.681,3.02A1.463,1.463,0,0,0-986.246-29.54Z" transform="translate(-640.231 -245.619)" fill="#f5f5f5"/><path d="M-1036.194,26.335c0,1.9,0,3.809,0,5.713,0,1.3.069,2.6-.044,3.895a4.344,4.344,0,0,1-4.355,3.914,4.182,4.182,0,0,1-4.337-3.678c-.185-3.106-.074-6.23-.075-9.346,0-.259.144-.492.833-.468v3.506c0,1.819-.028,3.638.007,5.456a3.4,3.4,0,0,0,3.627,3.666,3.361,3.361,0,0,0,3.468-3.621c.038-2.4-.012-4.807.023-7.21C-1037.038,27.562-1037.307,26.883-1036.194,26.335Z" transform="translate(-604.932 -282.374)" fill="#f5f5f5"/><path d="M-827.2-20.3c-.624-1.524-.37-3.119-.355-4.675.011-1.143-.227-1.665-1.5-1.563-1.676.134-3.787-.5-4.937.3-1.268.884-.279,3.125-.479,4.759-.051.414.192.929-.617,1.31V-33.612c.941,1.263.641,2.687.581,4.023-.075,1.625.3,2.295,2.118,2.257,4.738-.1,4.73-.007,4.812-4.708.01-.527-.266-1.159.34-1.592C-826.681-32.414-826.533-22.652-827.2-20.3Z" transform="translate(-732.925 -245.818)" fill="#f5f5f5"/><path d="M-1099.35-32.988c-1.451,0-2.9.051-4.353-.017-1.045-.049-1.463.225-1.492,1.383-.1,4.093-.153,4.08,4.013,4.12.607.006,1.279-.231,1.89.855a30.965,30.965,0,0,1-3.527-.025c-1.774-.205-2.515.235-2.4,2.24.19,3.266.049,3.253,3.271,3.29.868.01,1.784-.254,2.638.745-2.1,0-4.195.047-6.288-.029-.61-.022-.424-.71-.425-1.122q-.024-5.542,0-11.085c0-.5-.114-1.176.636-1.194,2.023-.048,4.047-.016,6.071-.016Z" transform="translate(-567.741 -245.681)" fill="#f5f5f5"/><path d="M-1057.3-33.234c-1.379.581-2.859.242-4.284.256-1.092.011-1.6.185-1.614,1.473-.052,4.023-.113,4.006,3.9,4.048a2.5,2.5,0,0,1,2.487.851c-1.939,0-3.407.08-4.862-.025-1.225-.087-1.513.358-1.519,1.535-.021,3.97-.07,3.963,3.908,3.987a3.85,3.85,0,0,1,2.539.556,37.568,37.568,0,0,1-6.738.212c-.663,0-.537-.626-.538-1.049q-.017-5.64,0-11.28c0-.434-.089-1.068.522-1.085,2.069-.06,4.141-.023,6.212-.023Q-1057.3-33.506-1057.3-33.234Z" transform="translate(-593.353 -245.721)" fill="#f5f5f5"/><path d="M-1099.4,26.638a15.859,15.859,0,0,1-4.517.185c-1.012,0-1.3.336-1.34,1.341-.161,4.145-.2,4.129,3.959,4.173.643.007,1.4-.3,2.1.53-1.6.6-3.134.289-4.611.29-1.079,0-1.426.295-1.448,1.416-.083,4.093-.129,4.083,3.977,4.115a3,3,0,0,1,1.956.271c-.489.952-1.371.494-2.014.5-4.756.061-4.757.039-4.757-4.626,0-2.269.132-4.548-.041-6.8-.139-1.808.544-2.24,2.193-2.092,1.5.135,3.024.028,4.537.028Z" transform="translate(-567.673 -282.117)" fill="#f5f5f5"/><path d="M-943.441,26.954c-1.451,0-2.9.05-4.351-.017-1.043-.048-1.465.22-1.494,1.381-.1,4.095-.154,4.078,4.012,4.127.625.007,1.393-.319,2.036.57a13.039,13.039,0,0,1-4.45.253c-1.093,0-1.593.165-1.6,1.46-.033,4.042-.1,4.031,4.031,4.07.611.005,1.282-.229,1.862.749-2.1,0-4.194.046-6.287-.029-.61-.022-.426-.709-.427-1.122q-.023-5.542,0-11.085c0-.495-.115-1.177.634-1.2,2.023-.05,4.048-.017,6.072-.017Z" transform="translate(-662.786 -282.223)" fill="#f5f5f5"/><path d="M-883.422-20.374c-2.071,0-4.143.022-6.213-.016-.522-.009-.487-.522-.488-.9q-.011-5.737-.005-11.474c0-.54.024-1.084.767-1.087,1.97-.008,3.939,0,6.33,0-1.218.855-1.223.96-4.121.824-1.692-.079-2.231.369-2.158,2.121.143,3.388.034,3.387,3.378,3.4.774,0,1.549.052,2.322.107.072.005.132.2.319.5a13.872,13.872,0,0,1-4.54.227c-1.058,0-1.442.253-1.466,1.4-.087,4.11-.136,4.1,3.962,4.13a3.315,3.315,0,0,1,1.892.2Z" transform="translate(-699.369 -245.682)" fill="#f5f5f5"/><path d="M-1237.777-20.5a5.092,5.092,0,0,1-.2-2.392c-.023-3.174.035-6.349-.033-9.521-.025-1.178.329-1.677,1.536-1.54.7.08,1.432-.033,2.134.058a4.513,4.513,0,0,1,3.849,4.633c-.118,2.2-1.929,4.238-4.129,4.087-2.264-.156-2.828.691-2.52,2.708a10.337,10.337,0,0,1-.072,1.988Zm.663-8.972c0,.84.024,1.682-.007,2.521-.027.708.189,1.1.977,1.044a7.254,7.254,0,0,0,2.672-.3,3.556,3.556,0,0,0,1.981-4.348c-.511-1.857-2.33-2.943-4.647-2.468-1.958.4-.58,2.116-.973,3.161A1.123,1.123,0,0,0-1237.114-29.472Z" transform="translate(-487.288 -245.608)" fill="#f5f5f5"/><path d="M-1237.624,39.642a4.442,4.442,0,0,1-.352-2.746c-.041-3.044.07-6.092-.052-9.131-.061-1.522.479-1.872,1.887-1.809,1.584.072,3.106.083,4.3,1.346a4.133,4.133,0,0,1,1.121,4.45,4.238,4.238,0,0,1-3.665,3.049c-2.712.319-2.7.3-2.752,3C-1237.147,38.336-1236.912,38.947-1237.624,39.642Zm.5-9.209c0,.84-.015,1.681.006,2.521.01.423-.124.987.551,1.034,1.632.114,3.3.209,4.437-1.287a3.545,3.545,0,0,0,.149-4.337,4.054,4.054,0,0,0-4.514-1.424c-1.319.656-.359,2.069-.627,3.107A1.519,1.519,0,0,0-1237.123,30.432Z" transform="translate(-487.278 -282.139)" fill="#f5f5f5"/><path d="M-1008.655,39.475c-.817-.315-.467-1-.472-1.5-.035-3.433.047-6.868-.05-10.3-.04-1.412.469-1.741,1.782-1.712,1.731.038,3.372.1,4.6,1.555a4.1,4.1,0,0,1,.821,4.51,4.238,4.238,0,0,1-3.659,2.79c-2.63.246-2.608.244-2.663,2.886C-1008.307,38.289-1007.98,38.991-1008.655,39.475Zm.377-9.1a12.821,12.821,0,0,0,.017,1.743c.088.636-.413,1.473.478,1.869a4.294,4.294,0,0,0,4.795-1.694,3.594,3.594,0,0,0-.332-4.175,3.827,3.827,0,0,0-4.256-1.138c-1.452.42-.4,1.994-.7,3.008A1.438,1.438,0,0,0-1008.278,30.374Z" transform="translate(-626.782 -282.149)" fill="#f5f5f5"/><path d="M-800.393-20.282c-1.047-1.229-1.325-2.844-1.793-4.315a1.915,1.915,0,0,0-2.368-1.61c-1.369.165-3-.561-3.536,1.646a13.872,13.872,0,0,1-2,4.709,3.4,3.4,0,0,1,.345-2.4q1.929-5.3,3.877-10.593c.131-.356.173-.8.645-.887.52-.1.643.322.776.686q2.279,6.271,4.554,12.545ZM-805.1-32.429c-.2.481-.279.656-.346.835-.362.968-.647,1.973-1.1,2.9-.723,1.487-.276,1.864,1.285,1.785,2.177-.11,2.184-.02,1.432-2.091C-804.2-30.029-804.589-31.05-805.1-32.429Z" transform="translate(-748.107 -245.747)" fill="#f5f5f5"/><path d="M-730.934-22.443a6.181,6.181,0,0,1-8.983.246,6.907,6.907,0,0,1-.287-9.943,6.363,6.363,0,0,1,9.361,0c-2.365-1.076-4.722-1.916-7.208-.568a6.048,6.048,0,0,0-3.188,6.529,5.907,5.907,0,0,0,4.189,4.7C-734.886-20.742-732.9-21.537-730.934-22.443Z" transform="translate(-789.564 -245.476)" fill="#f5f5f5"/><path d="M-856.833-22.544c-2.211,2.793-6.443,2.783-9.112.206a6.924,6.924,0,0,1,.066-10.084c2.73-2.531,7.015-2.477,9.139.344-3.841-2.076-7.292-2.1-9.785,1.858a5.75,5.75,0,0,0,.544,6.579C-863.341-20.528-860.219-20.663-856.833-22.544Z" transform="translate(-712.804 -245.434)" fill="#f5f5f5"/><path d="M-1030.583-32.124c-3.843-2.089-7.291-2.09-9.784,1.845a5.754,5.754,0,0,0,.648,6.731c2.648,2.963,5.719,2.808,9.142.666-.974,1.938-3.191,2.73-5.611,2.319a6.852,6.852,0,0,1-5.684-6.084,6.924,6.924,0,0,1,4.073-7.1A5.859,5.859,0,0,1-1030.583-32.124Z" transform="translate(-606.839 -245.389)" fill="#f5f5f5"/><path d="M-897.225,26.634h7.693c-.221.834-.771.7-1.163.635-2.027-.356-2.334.663-2.251,2.4.132,2.777.052,5.565.022,8.348-.007.6.251,1.284-.333,1.859-.8-.268-.513-.945-.518-1.432-.029-3.042-.1-6.088.02-9.125.063-1.583-.354-2.293-2.018-2.059C-896.221,27.328-896.836,27.527-897.225,26.634Z" transform="translate(-695.043 -282.556)" fill="#f5f5f5"/><path d="M-1010.374-33.389h7.8c-.286.943-.985.724-1.444.66-1.709-.24-2.042.553-1.986,2.092.112,3.038.044,6.084.021,9.127,0,.471.23,1.052-.386,1.382-.738-.222-.463-.842-.467-1.29-.026-3.043-.1-6.088.02-9.127.063-1.617-.258-2.5-2.088-2.179A1.184,1.184,0,0,1-1010.374-33.389Z" transform="translate(-626.065 -245.965)" fill="#f5f5f5"/><path d="M-1136.105-33.471v3.857c0,2.4.068,4.806-.028,7.2-.049,1.234.37,1.6,1.549,1.5,1.146-.095,2.307-.021,3.461-.021l.034.75c-1.826,0-3.653.021-5.478-.017-.412-.008-.4-.456-.4-.767q0-6.036.024-12.072C-1136.937-33.292-1136.811-33.544-1136.105-33.471Z" transform="translate(-548.893 -245.907)" fill="#f5f5f5"/><path d="M-1082.292-33.543a10.164,10.164,0,0,1,.143,3.118c.035,2.66.076,5.324-.017,7.981-.043,1.239.382,1.558,1.553,1.506a9.293,9.293,0,0,1,3.451.157l.041.563c-1.826,0-3.653.022-5.479-.016-.412-.009-.394-.458-.394-.768q0-6.035.023-12.07C-1082.969-33.331-1082.827-33.565-1082.292-33.543Z" transform="translate(-581.794 -245.87)" fill="#f5f5f5"/><path d="M-1136.1,25.543v9.806c0,3.1,0,3.077,3.01,3.118a2.64,2.64,0,0,1,2.456.76c-2.266,0-4.064.016-5.861-.012-.406-.006-.462-.4-.459-.726q.055-6.218.135-12.435C-1136.82,25.982-1136.631,25.913-1136.1,25.543Z" transform="translate(-548.897 -281.891)" fill="#f5f5f5"/><path d="M-746.885-33.56v13.305l-.4.005V-33.556Z" transform="translate(-786.447 -245.861)" fill="#f5f5f5"/><path d="M-1015.792,26.384v13.3h-.4v-13.3Z" transform="translate(-622.515 -282.404)" fill="#f5f5f5"/><path d="M-1916.488-436.238l-.389-.528c.319-.158.575-.14.7.245Z" transform="translate(-73.439 0)" fill="#f5f5f5"/><path d="M-799.951-30.373c.513,1.38.9,2.4,1.274,3.428.752,2.071.744,1.981-1.432,2.091-1.56.079-2.008-.3-1.285-1.785.45-.925.735-1.93,1.1-2.9C-800.23-29.717-800.151-29.892-799.951-30.373Z" transform="translate(-753.258 -247.804)" fill="#f5f5f5"/></g></svg>